<svg fill="#ffffff" width="256px" height="256px" viewBox="0 0 32.00 32.00" style="fill-rule:evenodd;clip-rule:evenodd;stroke-linejoin:round;stroke-miterlimit:2;" version="1.1" xml:space="preserve" xmlns="http://www.w3.org/2000/svg" xmlns:serif="http://www.serif.com/" xmlns:xlink="http://www.w3.org/1999/xlink" stroke="#ffffff" stroke-width="0.00032" transform="rotate(0)"><g id="SVGRepo_bgCarrier" stroke-width="0"></g><g id="SVGRepo_tracerCarrier" stroke-linecap="round" stroke-linejoin="round"></g><g id="SVGRepo_iconCarrier"> <g transform="matrix(1,0,0,1,-288,-288)"> <g transform="matrix(1.07692,0,0,1.03704,-23.3846,-10.7407)"> <path d="M317,291.929C317,291.417 316.804,290.927 316.456,290.565C316.108,290.203 315.635,290 315.143,290L292.857,290C292.365,290 291.892,290.203 291.544,290.565C291.196,290.927 291,291.417 291,291.929L291,315.071C291,315.583 291.196,316.073 291.544,316.435C291.892,316.797 292.365,317 292.857,317L315.143,317C315.635,317 316.108,316.797 316.456,316.435C316.804,316.073 317,315.583 317,315.071L317,291.929Z" style="fill:#ffe500;"></path> </g> <path d="M289,292L289,316C289,316.796 289.316,317.559 289.879,318.121C290.441,318.684 291.204,319 292,319C297.154,319 310.846,319 316,319C316.796,319 317.559,318.684 318.121,318.121C318.684,317.559 319,316.796 319,316L319,292C319,291.204 318.684,290.441 318.121,289.879C317.559,289.316 316.796,289 316,289C310.846,289 297.154,289 292,289C291.204,289 290.441,289.316 289.879,289.879C289.316,290.441 289,291.204 289,292ZM317,305C317,305 317,316 317,316C317,316.265 316.895,316.52 316.707,316.707C316.52,316.895 316.265,317 316,317L305,317L305,305L317,305ZM291,305L303,305L303,317L292,317C291.735,317 291.48,316.895 291.293,316.707C291.105,316.52 291,316.265 291,316L291,305ZM309.707,311.121L307.293,313.536C306.903,313.926 306.903,314.559 307.293,314.95C307.683,315.34 308.317,315.34 308.707,314.95L311.121,312.536L313.536,314.95C313.926,315.34 314.559,315.34 314.95,314.95C315.34,314.559 315.34,313.926 314.95,313.536L312.536,311.121L314.95,308.707C315.34,308.317 315.34,307.683 314.95,307.293C314.559,306.903 313.926,306.903 313.536,307.293L311.121,309.707L308.707,307.293C308.317,306.903 307.683,306.903 307.293,307.293C306.903,307.683 306.903,308.317 307.293,308.707L309.707,311.121ZM294,314L300,314C300.552,314 301,313.552 301,313C301,312.448 300.552,312 300,312L294,312C293.448,312 293,312.448 293,313C293,313.552 293.448,314 294,314ZM294,310L300,310C300.552,310 301,309.552 301,309C301,308.448 300.552,308 300,308L294,308C293.448,308 293,308.448 293,309C293,309.552 293.448,310 294,310ZM305,291L316,291C316.265,291 316.52,291.105 316.707,291.293C316.895,291.48 317,291.735 317,292L317,303L305,303L305,291ZM303,291L303,303L291,303L291,292C291,291.735 291.105,291.48 291.293,291.293C291.48,291.105 291.735,291 292,291L303,291ZM296,296L294,296C293.448,296 293,296.448 293,297C293,297.552 293.448,298 294,298L296,298L296,300C296,300.552 296.448,301 297,301C297.552,301 298,300.552 298,300L298,298L300,298C300.552,298 301,297.552 301,297C301,296.448 300.552,296 300,296L298,296L298,294C298,293.448 297.552,293 297,293C296.448,293 296,293.448 296,294L296,296ZM314,299C314.552,299 315,299.448 315,300C315,300.552 314.552,301 314,301C313.448,301 313,300.552 313,300C313,299.448 313.448,299 314,299ZM308.707,300.707L314.707,294.707C315.097,294.317 315.097,293.683 314.707,293.293C314.317,292.903 313.683,292.903 313.293,293.293L307.293,299.293C306.903,299.683 306.903,300.317 307.293,300.707C307.683,301.097 308.317,301.097 308.707,300.707ZM308,293C308.552,293 309,293.448 309,294C309,294.552 308.552,295 308,295C307.448,295 307,294.552 307,294C307,293.448 307.448,293 308,293Z" style="fill:#075ebd;"></path> </g> </g></svg>